# xmcd CD database file
#
# Track frame offsets:
#	150
#	25595
#	38062
#
# Disc length: 818 seconds
#
# Revision: 1
# Processed by: cddbd v1.5.1PL0 Copyright (c) Steve Scherf et al.
# Submitted via: CDex 1.51
#
DISCID=16033003
DTITLE=RIP SLYME - 黄昏サラウンド
DYEAR=2004
DGENRE=JPop
TTITLE0=黄昏サラウンド
TTITLE1=SPASSO
TTITLE2=BLUE BE-BOP (DJ MITSU THE BEATS REMIX)
EXTD=YEAR: 2004
EXTT0=
EXTT1=
EXTT2=
PLAYORDER=
